<svg xmlns="http://www.w3.org/2000/svg" viewBox="0 0 64 64" role="img" aria-label="Olympiade">
  <defs>
    <radialGradient id="bg" cx="50%" cy="35%" r="70%">
      <stop offset="0" stop-color="#2b0b44"/>
      <stop offset="1" stop-color="#07040d"/>
    </radialGradient>
    <linearGradient id="neon" x1="12" y1="52" x2="52" y2="12">
      <stop offset="0" stop-color="#35ffb1"/>
      <stop offset=".55" stop-color="#b100ff"/>
      <stop offset="1" stop-color="#f2d8ff"/>
    </linearGradient>
  </defs>
  <rect width="64" height="64" rx="14" fill="url(#bg)"/>
  <circle cx="32" cy="32" r="23" fill="none" stroke="#b100ff" stroke-width="3" opacity=".85"/>
  <circle cx="32" cy="32" r="5" fill="#35ffb1"/>
  <path d="M32 9v46M9 32h46M16 16l32 32M48 16 16 48" stroke="#b100ff" stroke-width="2" opacity=".45"/>
  <path d="M32 14a18 18 0 0 1 16 10L32 32Z" fill="url(#neon)"/>
  <path d="M26 42h12l-2 7h6v5H22v-5h6z" fill="#f2d8ff"/>
  <path d="M23 19h18v5c0 7-4 12-9 12s-9-5-9-12z" fill="none" stroke="#f2d8ff" stroke-width="3" stroke-linejoin="round"/>
</svg>
